HIERARCHY
ROOT Hips
{
  OFFSET 90.7885 88.945 -76.2838
  CHANNELS 6 Xposition Yposition Zposition Zrotation Xrotation Yrotation
  JOINT LeftUpLeg
  {
    OFFSET 8.64259 1.95398 -2.38835
    CHANNELS 3 Zrotation Xrotation Yrotation
    JOINT LeftLeg
    {
      OFFSET 43.7702 0 0
      CHANNELS 3 Zrotation Xrotation Yrotation
      JOINT LeftFoot
      {
        OFFSET 40.6238 0 0
        CHANNELS 3 Zrotation Xrotation Yrotation
        JOINT LeftToeBase
        {
          OFFSET 12.7242 0 0
          CHANNELS 3 Zrotation Xrotation Yrotation
          End Site
          {
            OFFSET 0 0 0
          }
        }
      }
    }
  }
  JOINT RightUpLeg
  {
    OFFSET -8.2249 1.95398 -2.59336
    CHANNELS 3 Zrotation Xrotation Yrotation
    JOINT RightLeg
    {
      OFFSET 43.5653 0 0
      CHANNELS 3 Zrotation Xrotation Yrotation
      JOINT RightFoot
      {
        OFFSET 40.6238 0 0
        CHANNELS 3 Zrotation Xrotation Yrotation
        JOINT RightToeBase
        {
          OFFSET 12.7242 0 0
          CHANNELS 3 Zrotation Xrotation Yrotation
          End Site
          {
            OFFSET 0 0 0
          }
        }
      }
    }
  }
  JOINT Spine
  {
    OFFSET 0.165834 0.87714 6.61349
    CHANNELS 3 Zrotation Xrotation Yrotation
    JOINT Spine1
    {
      OFFSET 7.38963 1.71661e-005 0
      CHANNELS 3 Zrotation Xrotation Yrotation
      JOINT Spine2
      {
        OFFSET 11.9445 1.14441e-005 0
        CHANNELS 3 Zrotation Xrotation Yrotation
        JOINT Spine3
        {
          OFFSET 14.7254 4.19617e-005 0
          CHANNELS 3 Zrotation Xrotation Yrotation
          JOINT Spine4
          {
            OFFSET 10.9679 0 0
            CHANNELS 3 Zrotation Xrotation Yrotation
            JOINT RightShoulder
            {
              OFFSET 2.46616 -1.6653 3.69651
              CHANNELS 3 Zrotation Xrotation Yrotation
              JOINT RightArm
              {
                OFFSET 13.0012 0 0
                CHANNELS 3 Zrotation Xrotation Yrotation
                JOINT RightForeArm
                {
                  OFFSET 28.7848 1.52588e-005 0
                  CHANNELS 3 Zrotation Xrotation Yrotation
                  JOINT RightHand
                  {
                    OFFSET 26.5688 1.52588e-005 0
                    CHANNELS 3 Zrotation Xrotation Yrotation
                    End Site
                    {
                      OFFSET 0 0 0
                    }
                  }
                }
              }
            }
            JOINT LeftShoulder
            {
              OFFSET 2.38034 -1.29275 -3.7523
              CHANNELS 3 Zrotation Xrotation Yrotation
              JOINT LeftArm
              {
                OFFSET 16.3182 6.10352e-005 0
                CHANNELS 3 Zrotation Xrotation Yrotation
                JOINT LeftForeArm
                {
                  OFFSET 27.0901 0 0
                  CHANNELS 3 Zrotation Xrotation Yrotation
                  JOINT LeftHand
                  {
                    OFFSET 24.5451 1.52588e-005 0
                    CHANNELS 3 Zrotation Xrotation Yrotation
                    End Site
                    {
                      OFFSET 0 0 0
                    }
                  }
                }
              }
            }
            JOINT Neck
            {
              OFFSET 5.0226 -0.0266342 0
              CHANNELS 3 Zrotation Xrotation Yrotation
              JOINT Head
              {
                OFFSET 6.69363 2.86102e-005 0
                CHANNELS 3 Zrotation Xrotation Yrotation
                End Site
                {
                  OFFSET 0 0 0
                }
              }
            }
          }
        }
      }
    }
  }
}
MOTION
Frames:	18
Frame Time:	0.0416667
282.371 78.7446 283.51 -79.7186 40.1228 -103.355 -164.945 55.0226 77.3528 -76.3602 5.79638 -7.20511 87.0024 10.561 -1.33583 19.2056 2.59348 -1.65624 174.107 12.9139 88.4443 -106.777 -5.55031 -0.738236 71.4553 -1.11154 3.59402 86.6368 -5.27158 -0.76916 1.05764 8.18151 -88.7716 10.481 2.67032 2.2043 -1.18891 2.76474 2.08461 -23.7215 1.88469 2.90465 -3.70889 1.88469 2.90465 91.7209 -24.2473 -105.432 39.1865 -18.0264 0.304455 -83.0932 64.4202 -47.5497 -7.02689 -0.111366 -29.4781 -91.7336 -54.0627 77.0926 -3.48828 12.5084 -12.8668 169.33 -10.6689 -61.3007 -127.78 -35.2155 14.1917 24.1383 -9.46911 -15.7283 -6.83582 -3.84156 5.06143 
269.57 85.8289 269.406 -83.6164 38.1777 -103.627 -169.899 29.4124 80.9716 -62.2877 -3.01279 -5.86231 93.1989 10.5111 -10.7275 30.0552 4.55639 -6.95703 176.028 28.1267 83.2809 -111.677 -2.01822 -1.12828 77.4309 -9.52926 -5.86312 46.4923 -1.72165 -2.7546 -0.10735 8.19414 -88.4145 10.4707 0.513186 3.09338 -1.20428 0.64874 3.06783 -23.7069 -0.43964 3.10472 -3.69423 -0.439626 3.10471 93.6827 -26.2085 -100.487 54.2783 -19.954 22.0962 -54.2298 71.868 -95.0196 -16.65 3.71546 -32.8616 -90.7656 -53.4335 78.3369 1.20042 23.1372 -46.4505 -149.51 8.59302 -82.2823 -127.63 2.60386 -7.73923 19.5428 -6.2366 -16.2885 -5.65924 -1.13299 4.30786 
256.082 86.9117 255.724 -85.2707 37.8899 -96.9142 -172.03 10.7493 95.6259 -52.6814 3.85437 -3.39128 97.8049 13.6604 -7.27446 36.6077 1.49936 -4.2282 -179.08 44.078 85.214 -106.891 -7.85708 -1.46835 82.0719 -12.5876 -8.81329 15.2787 -2.78694 8.05575 -1.63052 8.18689 -89.0729 10.519 -2.82142 2.11348 -1.15053 -2.72568 2.23561 -23.7067 -3.32607 1.16724 -3.69405 -3.32605 1.16724 94.7413 -20.7344 -99.8918 61.1856 -16.9475 38.9356 2.93475 39.4643 -100.577 -13.3634 0.232573 -86.1271 -86.7759 -38.7043 81.5019 -0.058688 18.4693 -62.7458 -109.615 7.50159 -86.6124 -28.344 5.28982 -22.5918 19.6547 1.11541 -12.6609 -7.87867 4.83429 4.12341 
241.86 90.416 240.386 -87.0111 42.5801 -88.7404 -170.022 -13.2555 93.4412 -29.0664 8.68361 -1.23762 70.6362 5.08402 2.43591 59.9272 -0.948708 -6.67425 -178.524 50.2035 92.461 -81.9891 -1.12352 -1.7925 78.6919 -9.49015 -3.06332 19.2114 -2.6425 6.95973 -2.31349 7.82732 -90.2755 11.2357 -4.73219 -0.0784031 -0.426656 -4.73101 0.130407 -23.0262 -4.48951 -1.49988 -3.01353 -4.48949 -1.4999 95.7168 -16.7396 -98.786 58.8013 -18.3821 52.2416 16.2291 20.7617 -76.95 -1.99305 12.9007 -128.601 -85.6851 -32.1728 82.0892 -10.3682 10.73 -55.7965 -117.977 9.6522 -79.0603 -33.4505 5.76167 -25.1811 17.5521 9.14345 -4.46455 -14.2512 9.78111 4.10368 
227.136 93.9541 224.517 -85.7744 48.1327 -83.9585 -171.102 -22.7516 99.2541 -21.7395 8.09607 3.33127 54.8347 -2.15053 1.38956 18.4492 2.34484 -1.20432 -178.098 45.8691 98.4504 -44.9289 -7.0059 -2.00036 71.4376 -6.33869 -0.146847 18.0579 0.106052 1.90159 -2.63404 7.94998 -91.515 10.913 -5.94479 -2.45307 -0.746185 -6.04695 -2.1883 -23.3437 -4.93281 -4.12867 -3.33102 -4.93281 -4.12867 93.3931 -12.7377 -106.672 57.0327 -14.9172 53.6667 -18.9093 4.51032 -69.0834 -32.9295 30.069 -94.4268 -84.3799 -30.5147 84.2424 -6.34326 4.97758 -46.5185 -123.908 12.5956 -72.9464 -29.9625 5.31072 -26.1178 19.5341 16.6184 5.56836 -16.2289 14.1459 2.66105 
214.016 93.0992 210.262 -89.0192 51.7221 -84.143 -170.416 -23.1517 94.3708 -40.0344 18.8432 0.405631 59.938 0.537901 6.10325 27.7942 4.8775 -6.79755 -178.02 38.9454 97.0789 -28.1328 -20.3207 -2.45896 73.5421 -7.49517 -1.33374 21.8751 0.459231 0.534748 -2.23503 7.87321 -91.3663 11.0839 -5.08251 -2.22159 -0.578605 -5.17532 -1.99529 -23.1571 -4.17999 -3.64768 -3.14446 -4.18001 -3.64769 92.7271 -19.2729 -105.325 47.9203 -13.4685 46.0501 -26.3513 -4.04698 -67.8758 -40.0711 20.1443 -65.4436 -86.8396 -36.7413 80.9682 -0.53474 17.0208 -39.0028 -127.537 10.2068 -76.4912 -26.7562 4.07176 -23.4995 16.8821 17.2141 7.0216 -13.7917 14.5882 2.17804 
201.553 91.0686 195.745 -97.9061 51.7145 -78.9712 -164.682 -14.4487 97.5418 -70.7381 -1.48068 -0.649411 60.8724 1.18448 4.78354 31.9614 5.06767 -8.39144 178.877 30.8035 96.737 -34.0736 -13.9504 -1.41585 68.778 -4.83339 -1.0773 20.2573 -1.11839 3.83728 -1.78724 8.16813 -91.0752 10.5047 -4.05367 -1.77722 -1.16085 -4.12793 -1.59686 -23.724 -3.33218 -2.91403 -3.71139 -3.33218 -2.91404 91.5219 -27.4853 -104.534 38.8111 -7.98851 29.9236 -29.4793 -12.4046 -67.9499 -42.5929 8.81614 -33.8592 -87.7479 -47.3576 81.586 -0.0259773 28.8797 -28.4267 -138.737 2.06295 -87.8071 -27.7092 4.09865 -22.7653 14.1399 15.4572 8.46538 -11.5134 12.8227 1.26802 
191.577 88.801 182.046 -102.094 53.2758 -70.2705 -159.613 6.20042 106.17 -96.6271 -9.56648 3.47955 67.5714 4.03757 7.71205 28.4402 6.14216 -8.83798 177.702 28.8855 103.367 -52.4717 -13.3414 0.1845 71.2171 -6.59767 -5.08063 17.5445 -1.16443 4.32982 -0.378461 8.31541 -91.715 10.2097 -1.53683 -3.27819 -1.46437 -1.67956 -3.20747 -23.9658 -0.481299 -3.58804 -3.95317 -0.481292 -3.58804 90.3152 -31.5981 -105.569 34.566 -1.496 8.5911 -32.0219 -12.5595 -76.0078 -45.0208 0.670657 -12.5505 -88.8833 -55.0079 81.3441 -4.52482 35.0968 -13.0225 -137.332 -6.5787 -95.4501 -23.4957 2.29549 -17.0776 14.2289 11.6612 9.94184 -10.9643 8.74809 0.476766 
180.808 87.2195 169.959 -105.079 50.7036 -67.3714 -167.486 28.1038 101.69 -105.069 3.00271 6.17967 71.9317 6.36136 10.1148 27.8758 9.35668 -13.1512 176.543 16.0831 102.496 -59.0364 -13.0264 0.531083 87.5531 -15.3118 -6.09165 19.8596 -1.31732 4.33826 0.485547 8.50316 -91.7575 9.85701 0.170899 -3.50074 -1.81865 0.016778 -3.50489 -24.3194 1.21453 -3.28799 -4.30681 1.21455 -3.28799 88.7105 -32.1927 -108.415 29.8825 6.57943 -14.5136 -28.858 -12.0905 -80.7458 -48.8848 1.08806 -12.0018 -86.9863 -52.5889 83.6615 -19.1412 35.4183 13.4511 -137.92 -0.362325 -90.6661 -23.2811 2.61402 -18.9505 16.3841 6.97481 6.9778 -10.8149 4.72821 1.22351 
168.141 89.2584 157.192 -100.523 49.2956 -76.4794 -171.242 40.936 91.0504 -85.887 -4.4757 3.02695 76.6153 8.23562 7.15896 28.7552 8.44957 -12.2407 172.625 1.32345 91.0672 -48.496 -16.9931 -0.188543 91.8894 -16.8568 -4.89003 23.8652 -1.88811 5.29844 1.61472 7.90427 -90.9703 11.0937 2.76399 -2.19282 -0.576526 2.66483 -2.31233 -23.1282 3.29516 -1.26037 -3.11557 3.29515 -1.26038 90.2238 -25.9854 -107.909 35.2885 20.8597 -25.5741 -33.7073 -14.4855 -90.3162 -51.0921 -0.368088 -9.40941 -85.7497 -48.4782 84.8828 -27.7434 40.1357 34.1101 -133.978 7.69419 -87.7756 -24.3959 2.65192 -18.4021 14.0195 -0.624403 3.53235 -10.1935 -1.53431 0.0226427 
153.859 94.7035 142.448 -101.796 49.171 -79.1155 -175.206 33.789 88.5838 -45.2623 -9.65891 -1.72266 69.6571 5.74808 2.26015 30.6159 7.20676 -10.7329 169.621 -17.8341 87.7721 -32.221 -22.4309 -2.8399 68.1883 -4.24353 -5.95425 30.0263 -3.42864 8.1905 2.99933 7.77423 -90.093 11.3655 5.92529 -0.779689 -0.292293 5.88518 -1.0406 -22.9347 5.88481 1.04349 -2.92203 5.88482 1.04348 92.8984 -17.6227 -105.621 39.6998 30.3397 -21.7256 -31.9663 -14.1225 -102.145 -49.5263 -0.0878909 -10.0623 -84.9592 -40.0904 84.8658 -33.6921 37.796 46.8585 -131.311 12.9093 -83.9007 -23.0356 2.05014 -15.99 14.9844 -8.68194 -4.09779 -14.2106 -7.29271 -0.520352 
140.037 97.3126 128.13 -99.0947 49.9002 -82.1736 -179.593 24.8683 88.7318 -10.9815 -2.22449 -1.2592 65.1887 4.26221 -7.39748 18.4716 -6.46506 8.80517 167.707 -23.6859 83.4292 -30.7068 -18.7453 -3.94297 61.2307 -0.0757015 -2.27416 21.265 -1.27408 4.08096 3.49759 7.43128 -89.5702 12.0252 7.1563 0.0746506 0.374058 7.15263 -0.24205 -22.3088 6.80137 2.23212 -2.29616 6.80136 2.23211 94.0889 -11.4763 -105.403 33.888 20.8796 -14.1979 -31.9589 -7.85962 -105.668 -46.889 0.972048 -12.6042 -84.0197 -33.8025 85.5172 -38.2168 27.3802 56.1635 -127.584 18.0358 -78.8393 -22.2792 1.37259 -12.7149 15.18 -11.6894 -8.44509 -15.288 -9.04141 -0.911756 
126.869 96.3755 114.756 -102.262 50.003 -75.369 -177.869 21.5455 92.0585 -12.1221 6.50889 -0.596566 63.9135 3.777 1.56725 25.2894 2.81722 -3.26734 166.958 -24.6789 84.0918 -43.4613 -8.10729 -1.27023 60.9615 -0.120923 -1.91196 20.1261 -1.74362 5.13523 3.31188 7.33414 -90.1625 12.2545 6.50548 -1.05364 0.599226 6.45275 -1.34009 -22.0661 6.52006 0.958816 -2.05344 6.52007 0.958818 93.4861 -15.3876 -105.093 30.4644 -2.72323 -4.35095 -34.6126 0.838884 -103.48 -43.0014 1.54153 -14.2251 -83.5496 -37.603 86.9346 -37.083 20.2877 56.4608 -129.469 17.2236 -75.346 -20.1822 1.07736 -11.8134 14.8699 -10.1649 -8.42655 -15.8104 -7.68727 0.0685744 
114.032 93.9634 102.269 -109.751 50.8801 -70.5852 -173.897 19.6592 91.4982 -32.1017 9.11531 -3.5891 57.6392 -0.73146 3.98346 22.1443 2.0854 -1.84977 165.347 -18.4407 78.611 -62.6614 -3.15838 -2.50895 64.1715 -2.73994 -3.67868 14.6093 -0.676415 3.77222 2.70416 7.74647 -90.1877 11.4147 5.29328 -0.906253 -0.245942 5.24827 -1.13897 -22.867 5.32014 0.731044 -2.85441 5.32014 0.731052 91.8199 -20.6733 -106.78 37.7687 -13.2772 8.98385 -28.9003 1.15384 -91.3767 -28.9087 2.17957 -19.4885 -83.7697 -44.074 87.4291 -32.9807 17.4978 43.2085 -128.943 9.94799 -79.1771 -25.5063 2.30076 -16.0312 13.4778 -6.21315 -9.40318 -13.9768 -3.76876 1.08124 
102.253 90.7022 91.9486 -110.966 50.8614 -76.7313 -170.562 17.8924 82.7315 -52.9337 8.36133 -6.11539 77.4969 8.65067 6.0959 15.6241 2.39903 -1.24462 170.277 -3.26669 74.788 -80.7764 -4.52864 -4.34461 73.2665 -7.90055 -5.20258 15.3846 -0.473917 3.32661 1.41626 8.08419 -89.2295 10.6937 3.17541 1.25052 -0.973646 3.22738 1.10943 -23.5277 2.65267 2.1474 -3.51504 2.65266 2.1474 91.4813 -27.7746 -104.584 41.2367 -11.0656 15.1629 -23.0529 -10.3828 -70.3388 -34.033 1.86195 -16.253 -86.7237 -53.3338 84.1525 -17.4431 19.5727 17.1843 -133.865 2.59642 -82.6566 -26.4247 3.46304 -20.9618 14.6366 -2.42251 -11.9459 -12.8762 0.572985 2.71683 
91.4885 89.2599 81.4942 -111.791 52.0773 -76.8243 -169.827 6.1621 81.963 -56.1777 5.42244 -7.37653 89.5941 13.1495 1.97737 21.5112 4.75859 -4.81245 -179.154 13.7067 79.1259 -86.679 -2.68452 -4.7607 78.7954 -10.7897 -5.5397 14.3336 -0.772678 3.99026 0.362685 8.11603 -89.0919 10.6299 1.14017 1.70094 -1.04159 1.21393 1.64911 -23.5697 0.576409 1.96488 -3.55705 0.576416 1.96487 92.8545 -28.08 -101.636 44.1485 -3.16605 23.8216 -19.832 -13.3491 -62.8861 -31.1264 2.24993 -19.0085 -87.5766 -55.3978 83.2558 -1.05833 19.8432 -12.6627 -134.915 0.3413 -84.4288 -24.9359 3.23472 -20.9178 12.7007 2.45232 -11.5868 -11.8332 4.98109 3.76646 
79.5335 91.294 69.6732 -109.961 52.2799 -74.8417 -171.119 -7.74303 86.8142 -45.1896 4.90057 -7.88278 84.6863 11.0823 3.0815 35.5885 4.6292 -9.02531 -175.694 24.1553 87.8925 -72.1121 2.56132 -5.20952 81.2013 -11.6437 -4.51427 11.3513 0.0237239 3.03585 -0.830644 7.79754 -89.6209 11.2848 -1.4763 0.901351 -0.385685 -1.43521 0.965452 -22.9268 -1.67895 0.415901 -2.91419 -1.67893 0.415898 94.11 -25.8984 -99.6712 44.195 -4.1019 32.5516 -24.5783 -14.6317 -64.4111 -28.7261 1.66719 -19.0567 -87.3356 -49.089 82.5654 3.28381 11.1768 -26.2331 -135.036 0.755927 -81.5845 -27.3551 3.90586 -22.2687 9.38461 8.66195 -8.58328 -14.2073 9.84491 5.35286 
66.5578 94.3536 57.3238 -108.797 50.6319 -71.7529 -172.832 -22.4661 90.0469 -29.5702 8.98665 -3.85343 64.9904 2.32636 3.70793 44.3104 4.66804 -13.1492 -177.618 25.1699 94.7526 -43.7875 -1.34958 -4.27177 70.1307 -6.08595 -2.89569 16.3417 -0.36782 3.0053 -2.27899 7.60915 -90.5723 11.6539 -4.80165 -0.638531 -0.00805902 -4.82509 -0.426094 -22.6052 -4.38735 -2.05477 -2.59257 -4.38735 -2.05477 95.1057 -22.154 -98.562 41.3057 -7.72806 37.9076 -30.7376 -15.6282 -68.4738 -29.9333 1.90718 -21.3319 -86.0222 -41.6166 83.2913 -1.59882 2.17744 -23.3097 -138.073 2.15375 -74.5097 -30.8366 4.74549 -23.2873 8.01284 15.5457 0.10777 -18.7001 14.4382 6.04843 
